<?xml version="1.0" encoding="utf-8"?>
<!-- Generator: Adobe Illustrator 18.1.1, SVG Export Plug-In . SVG Version: 6.00 Build 0)  -->
<!DOCTYPE svg PUBLIC "-//W3C//DTD SVG 1.1//EN" "http://www.w3.org/Graphics/SVG/1.1/DTD/svg11.dtd">
<svg version="1.1" id="Layer_2" xmlns="http://www.w3.org/2000/svg" xmlns:xlink="http://www.w3.org/1999/xlink" x="0px" y="0px"
	 viewBox="0 0 586 58" enable-background="new 0 0 586 58" xml:space="preserve">
<g>
	<path fill="#FFFFFF" d="M9.6,23.4V58H0V0.1l29,29l29-29V58h-9.8V23.4L29,42.7L9.6,23.4z"/>
	<path fill="#FFFFFF" d="M117,48.3H90.4L85.5,58H74.7l29-57.9l29,57.9h-10.8L117,48.3z M95.2,38.7h17l-8.5-17L95.2,38.7z"/>
	<path fill="#FFFFFF" d="M168.9,0.1c4,0,7.7,0.8,11.2,2.3c3.5,1.5,6.6,3.6,9.2,6.3l-6.8,6.8c-3.8-3.8-8.3-5.7-13.6-5.7
		c-5.3,0-9.9,1.9-13.7,5.7c-3.8,3.8-5.7,8.3-5.7,13.6c0,5.3,1.9,9.8,5.7,13.7c3.8,3.7,8.3,5.6,13.7,5.6c5.2,0,9.8-1.9,13.6-5.6
		l6.8,6.8c-2.7,2.7-5.7,4.8-9.2,6.3c-3.5,1.5-7.2,2.3-11.2,2.3c-8,0-14.9-2.8-20.5-8.5c-5.7-5.6-8.5-12.4-8.5-20.5
		c0-8,2.8-14.8,8.5-20.5C153.9,2.9,160.8,0.1,168.9,0.1z"/>
	<path fill="#FFFFFF" d="M206,0.1h9.6v24.1h29V0.1h9.7V58h-9.7V33.9h-29V58H206V0.1z"/>
	<path fill="#FFFFFF" d="M270.9,0.1h9.6V58h-9.6V0.1z"/>
	<path fill="#FFFFFF" d="M297.2,0l38.6,34.7V0h9.7v57.9v-0.1V58l-38.6-34.7v34.6h-9.6V0z"/>
	<path fill="#FFFFFF" d="M404.5,48.3h-26.6l-4.9,9.7h-10.8l29-57.9l29,57.9h-10.8L404.5,48.3z M382.6,38.7h17l-8.5-17L382.6,38.7z"
		/>
	<path fill="#FFA114" d="M480,29c3.4,3.3,5.1,7.3,5.1,12.1c0,2.3-0.4,4.5-1.3,6.5c-0.9,2.1-2.1,3.9-3.6,5.4
		c-1.5,1.5-3.3,2.7-5.4,3.6c-2.1,0.9-4.2,1.3-6.5,1.3h-31.4V0.1h31.4c2.2,0,4.4,0.4,6.5,1.3c2.1,0.9,3.9,2.1,5.4,3.6
		c1.5,1.5,2.7,3.3,3.6,5.4c0.9,2.1,1.3,4.2,1.3,6.5C485,21.7,483.3,25.7,480,29z M468.2,9.8h-21.8v14.5h21.8c0.9,0,1.9-0.2,2.8-0.6
		c0.9-0.4,1.7-0.9,2.3-1.6c0.7-0.7,1.2-1.4,1.5-2.3c0.4-0.9,0.5-1.8,0.5-2.8c0-0.9-0.2-1.9-0.5-2.8c-0.4-0.9-0.9-1.7-1.5-2.3
		c-0.7-0.7-1.4-1.2-2.3-1.5C470,9.9,469.1,9.8,468.2,9.8z M468.2,48.3c0.9,0,1.9-0.2,2.8-0.5c0.9-0.4,1.7-0.9,2.3-1.5
		c0.7-0.7,1.2-1.4,1.5-2.3c0.4-0.9,0.5-1.8,0.5-2.8c0-0.9-0.2-1.9-0.5-2.8c-0.4-0.9-0.9-1.7-1.5-2.3c-0.6-0.7-1.4-1.2-2.3-1.6
		c-0.9-0.4-1.8-0.6-2.8-0.6h-21.8v14.4H468.2z"/>
	<path fill="#FFA114" d="M501.7,0.1h9.6V58h-9.6V0.1z"/>
	<path fill="#FFA114" d="M557,0.1c8,0,14.8,2.8,20.5,8.5c5.7,5.7,8.6,12.5,8.6,20.5c0,8.1-2.9,14.9-8.6,20.5
		C571.8,55.2,565,58,557,58c-8,0-14.8-2.8-20.5-8.5c-5.7-5.6-8.5-12.4-8.5-20.5c0-8,2.8-14.8,8.5-20.5C542.1,2.9,548.9,0.1,557,0.1z
		 M557,9.8c-5.3,0-9.8,1.9-13.7,5.7c-3.7,3.8-5.6,8.3-5.6,13.6c0,5.3,1.9,9.8,5.6,13.7c3.8,3.7,8.4,5.6,13.7,5.6
		c5.3,0,9.8-1.9,13.6-5.6c3.8-3.8,5.7-8.4,5.7-13.7c0-5.3-1.9-9.8-5.7-13.6C566.8,11.7,562.3,9.8,557,9.8z"/>
</g>
</svg>
