<?xml version="1.0" encoding="utf-8"?>
<!-- Generator: Adobe Illustrator 18.1.1, SVG Export Plug-In . SVG Version: 6.00 Build 0)  -->
<!DOCTYPE svg PUBLIC "-//W3C//DTD SVG 1.1//EN" "http://www.w3.org/Graphics/SVG/1.1/DTD/svg11.dtd">
<svg version="1.1" id="Layer_2" xmlns="http://www.w3.org/2000/svg" xmlns:xlink="http://www.w3.org/1999/xlink" x="0px" y="0px"
	 viewBox="0 0 587.4 91.7" enable-background="new 0 0 587.4 91.7" xml:space="preserve">
<g>
	<path fill="#FFFFFF" d="M10.9,23.4V58H1.3V0.1l29,29l29-29V58h-9.8V23.4L30.3,42.7L10.9,23.4z"/>
	<path fill="#FFFFFF" d="M118.4,48.3H91.7L86.8,58H76l29-57.9L134,58h-10.8L118.4,48.3z M96.5,38.7h17l-8.5-17L96.5,38.7z"/>
	<path fill="#FFFFFF" d="M170.2,0.1c4,0,7.7,0.8,11.2,2.3c3.5,1.5,6.6,3.6,9.2,6.3l-6.8,6.8c-3.8-3.8-8.3-5.7-13.6-5.7
		c-5.3,0-9.9,1.9-13.7,5.7c-3.8,3.8-5.7,8.3-5.7,13.6c0,5.3,1.9,9.8,5.7,13.7c3.8,3.7,8.3,5.6,13.7,5.6c5.2,0,9.8-1.9,13.6-5.6
		l6.8,6.8c-2.7,2.7-5.7,4.8-9.2,6.3c-3.5,1.5-7.2,2.3-11.2,2.3c-8,0-14.9-2.8-20.5-8.5c-5.7-5.6-8.5-12.4-8.5-20.5
		c0-8,2.8-14.8,8.5-20.5C155.3,2.9,162.1,0.1,170.2,0.1z"/>
	<path fill="#FFFFFF" d="M207.3,0.1h9.6v24.1h29V0.1h9.7V58h-9.7V33.9h-29V58h-9.6V0.1z"/>
	<path fill="#FFFFFF" d="M272.3,0.1h9.6V58h-9.6V0.1z"/>
	<path fill="#FFFFFF" d="M298.6,0l38.6,34.7V0h9.7v57.9v-0.1V58l-38.6-34.7v34.6h-9.6V0z"/>
	<path fill="#FFFFFF" d="M405.8,48.3h-26.6l-4.9,9.7h-10.8l29-57.9l29,57.9h-10.8L405.8,48.3z M384,38.7h17l-8.5-17L384,38.7z"/>
	<path fill="#FFA114" d="M481.3,29c3.4,3.3,5.1,7.3,5.1,12.1c0,2.3-0.4,4.5-1.3,6.5c-0.9,2.1-2.1,3.9-3.6,5.4
		c-1.5,1.5-3.3,2.7-5.4,3.6c-2.1,0.9-4.2,1.3-6.5,1.3h-31.4V0.1h31.4c2.2,0,4.4,0.4,6.5,1.3c2.1,0.9,3.9,2.1,5.4,3.6
		c1.5,1.5,2.7,3.3,3.6,5.4c0.9,2.1,1.3,4.2,1.3,6.5C486.4,21.7,484.7,25.7,481.3,29z M469.5,9.8h-21.8v14.5h21.8
		c0.9,0,1.9-0.2,2.8-0.6c0.9-0.4,1.7-0.9,2.3-1.6c0.7-0.7,1.2-1.4,1.5-2.3c0.4-0.9,0.5-1.8,0.5-2.8c0-0.9-0.2-1.9-0.5-2.8
		c-0.4-0.9-0.9-1.7-1.5-2.3c-0.7-0.7-1.4-1.2-2.3-1.5C471.4,9.9,470.5,9.8,469.5,9.8z M469.5,48.3c0.9,0,1.9-0.2,2.8-0.5
		c0.9-0.4,1.7-0.9,2.3-1.5c0.7-0.7,1.2-1.4,1.5-2.3c0.4-0.9,0.5-1.8,0.5-2.8c0-0.9-0.2-1.9-0.5-2.8c-0.4-0.9-0.9-1.7-1.5-2.3
		c-0.6-0.7-1.4-1.2-2.3-1.6c-0.9-0.4-1.8-0.6-2.8-0.6h-21.8v14.4H469.5z"/>
	<path fill="#FFA114" d="M503.1,0.1h9.6V58h-9.6V0.1z"/>
	<path fill="#FFA114" d="M558.3,0.1c8,0,14.8,2.8,20.5,8.5c5.7,5.7,8.6,12.5,8.6,20.5c0,8.1-2.9,14.9-8.6,20.5
		c-5.6,5.7-12.4,8.5-20.5,8.5c-8,0-14.8-2.8-20.5-8.5c-5.7-5.6-8.5-12.4-8.5-20.5c0-8,2.8-14.8,8.5-20.5
		C543.4,2.9,550.3,0.1,558.3,0.1z M558.3,9.8c-5.3,0-9.8,1.9-13.7,5.7c-3.7,3.8-5.6,8.3-5.6,13.6c0,5.3,1.9,9.8,5.6,13.7
		c3.8,3.7,8.4,5.6,13.7,5.6c5.3,0,9.8-1.9,13.6-5.6c3.8-3.8,5.7-8.4,5.7-13.7c0-5.3-1.9-9.8-5.7-13.6
		C568.1,11.7,563.6,9.8,558.3,9.8z"/>
</g>
<g>
	<path fill="#FFFFFF" d="M2.5,88.2c1,1,2.5,1.8,4.3,1.8c2,0,3.5-1,3.5-2.6c0-1.7-1.4-2.9-5.4-2.9v-1.8c3.6,0,4.9-1.2,4.9-2.7
		c0-1.4-1.2-2.3-3-2.3c-1.4,0-2.6,0.6-3.7,1.5l-1.3-1.5c1.3-1.2,3-2,5-2c3.1,0,5.3,1.5,5.3,4c0,1.8-1.3,3-3.3,3.7v0.1
		c2.1,0.5,3.8,1.8,3.8,3.9c0,2.8-2.6,4.5-5.8,4.5c-2.7,0-4.5-1-5.7-2.2L2.5,88.2z"/>
	<path fill="#FFFFFF" d="M16.6,75.6h4c4.8,0,7.5,2.7,7.5,8c0,5.2-2.7,8.1-7.4,8.1h-4.1V75.6z M20.5,89.7c3.4,0,5.1-2.1,5.1-6.1
		s-1.8-6-5.1-6h-1.4v12.1H20.5z"/>
	<path fill="#FFFFFF" d="M46.3,75.6h5.2c3.5,0,6,1.2,6,4.8c0,3.5-2.5,5.1-6,5.1h-2.7v6.1h-2.5V75.6z M51.3,83.6c2.6,0,3.8-1,3.8-3.1
		s-1.3-2.9-3.8-2.9h-2.5v6H51.3z"/>
	<path fill="#FFFFFF" d="M69.7,91.7L66,85.2h-2.6v6.5H61V75.6h5.2c3.3,0,5.8,1.2,5.8,4.6c0,2.5-1.3,4-3.4,4.6l3.9,6.8H69.7z
		 M63.4,83.2h2.4c2.4,0,3.6-1,3.6-2.9c0-2-1.3-2.7-3.6-2.7h-2.4V83.2z"/>
	<path fill="#FFFFFF" d="M75.6,89.6h3.9V77.7h-3.9v-2.1h10.3v2.1H82v11.9h3.9v2.1H75.6V89.6z"/>
	<path fill="#FFFFFF" d="M90,75.6h2.5l4.8,9.6l1.5,3.3h0.1c-0.1-1.6-0.3-3.6-0.3-5.3v-7.6h2.3v16.1h-2.5l-4.8-9.6L92,78.8H92
		c0.1,1.7,0.3,3.5,0.3,5.2v7.7H90V75.6z"/>
	<path fill="#FFFFFF" d="M108.9,77.7h-5.2v-2.1h12.8v2.1h-5.2v14h-2.5V77.7z"/>
	<path fill="#FFFFFF" d="M127.5,87.1h-5.6l-1.4,4.6H118l5.3-16.1h2.8l5.3,16.1h-2.6L127.5,87.1z M126.9,85.1l-0.7-2.2
		c-0.5-1.7-1-3.6-1.5-5.3h-0.1c-0.5,1.8-1,3.6-1.5,5.3l-0.7,2.2H126.9z"/>
	<path fill="#FFFFFF" d="M134.5,75.6h4.6c3.3,0,5.6,1.1,5.6,3.9c0,1.5-0.9,3-2.8,3.5v0.1c2.3,0.4,3.7,1.6,3.7,3.8
		c0,3.2-2.5,4.7-6.1,4.7h-5V75.6z M138.7,82.4c2.5,0,3.5-0.9,3.5-2.5c0-1.6-1.2-2.3-3.4-2.3h-1.9v4.8H138.7z M139.1,89.7
		c2.5,0,4-0.9,4-2.9c0-1.8-1.4-2.7-4-2.7h-2.2v5.6H139.1z"/>
	<path fill="#FFFFFF" d="M149.9,75.6h2.4v14h7.7v2.1h-10.1V75.6z"/>
	<path fill="#FFFFFF" d="M164.1,75.6h10.1v2.1h-7.6v4.6h6.4v2.1h-6.4v5.3h7.9v2.1h-10.3V75.6z"/>
	<path fill="#FFFFFF" d="M193.7,87.9c1.2,1.2,2.8,1.9,4.5,1.9c2.1,0,3.3-0.9,3.3-2.4c0-1.5-1.2-1.9-2.8-2.6l-2.3-1
		c-1.6-0.6-3.4-1.8-3.4-4.2c0-2.5,2.2-4.4,5.4-4.4c2,0,3.8,0.8,5,2l-1.3,1.6c-1.1-0.9-2.2-1.4-3.8-1.4c-1.8,0-2.9,0.8-2.9,2.1
		c0,1.4,1.4,1.9,2.8,2.5l2.2,1c2,0.8,3.5,1.9,3.5,4.3c0,2.6-2.2,4.7-5.8,4.7c-2.3,0-4.4-0.9-5.9-2.4L193.7,87.9z"/>
	<path fill="#FFFFFF" d="M206.6,83.6c0-5.2,2.6-8.3,6.2-8.3s6.2,3.1,6.2,8.3c0,5.2-2.6,8.4-6.2,8.4S206.6,88.8,206.6,83.6z
		 M216.5,83.6c0-3.8-1.5-6.1-3.7-6.1c-2.2,0-3.7,2.3-3.7,6.1s1.5,6.2,3.7,6.2C215,89.8,216.5,87.4,216.5,83.6z"/>
	<path fill="#FFFFFF" d="M223.2,75.6h2.4v14h7.7v2.1h-10.1V75.6z"/>
	<path fill="#FFFFFF" d="M236.7,75.6h2.5v10.1c0,2.9,1.2,4.1,3.1,4.1c1.8,0,3.1-1.2,3.1-4.1V75.6h2.4v9.9c0,4.5-2.2,6.4-5.5,6.4
		s-5.5-1.9-5.5-6.4V75.6z"/>
	<path fill="#FFFFFF" d="M255.6,77.7h-5.2v-2.1h12.8v2.1h-5.2v14h-2.5V77.7z"/>
	<path fill="#FFFFFF" d="M266.4,89.6h3.9V77.7h-3.9v-2.1h10.3v2.1h-3.9v11.9h3.9v2.1h-10.3V89.6z"/>
	<path fill="#FFFFFF" d="M279.9,83.6c0-5.2,2.6-8.3,6.2-8.3s6.2,3.1,6.2,8.3c0,5.2-2.6,8.4-6.2,8.4S279.9,88.8,279.9,83.6z
		 M289.9,83.6c0-3.8-1.5-6.1-3.7-6.1c-2.2,0-3.7,2.3-3.7,6.1s1.5,6.2,3.7,6.2C288.4,89.8,289.9,87.4,289.9,83.6z"/>
	<path fill="#FFFFFF" d="M295.5,75.6h2.5l4.8,9.6l1.5,3.3h0.1c-0.1-1.6-0.3-3.6-0.3-5.3v-7.6h2.3v16.1h-2.5l-4.8-9.6l-1.5-3.3h-0.1
		c0.1,1.7,0.3,3.5,0.3,5.2v7.7h-2.3V75.6z"/>
	<path fill="#FFFFFF" d="M311.2,87.9c1.2,1.2,2.8,1.9,4.5,1.9c2.1,0,3.3-0.9,3.3-2.4c0-1.5-1.2-1.9-2.8-2.6l-2.3-1
		c-1.6-0.6-3.4-1.8-3.4-4.2c0-2.5,2.2-4.4,5.4-4.4c2,0,3.8,0.8,5,2l-1.3,1.6c-1.1-0.9-2.2-1.4-3.8-1.4c-1.8,0-2.9,0.8-2.9,2.1
		c0,1.4,1.4,1.9,2.8,2.5l2.2,1c2,0.8,3.5,1.9,3.5,4.3c0,2.6-2.2,4.7-5.8,4.7c-2.3,0-4.4-0.9-5.9-2.4L311.2,87.9z"/>
	<path fill="#FFFFFF" d="M340.7,75.6h10v2.1h-7.6v5h6.4v2.1h-6.4v6.9h-2.4V75.6z"/>
	<path fill="#FFFFFF" d="M353.3,83.6c0-5.2,2.6-8.3,6.2-8.3s6.2,3.1,6.2,8.3c0,5.2-2.6,8.4-6.2,8.4S353.3,88.8,353.3,83.6z
		 M363.3,83.6c0-3.8-1.5-6.1-3.7-6.1c-2.2,0-3.7,2.3-3.7,6.1s1.5,6.2,3.7,6.2C361.8,89.8,363.3,87.4,363.3,83.6z"/>
	<path fill="#FFFFFF" d="M377.9,91.7l-3.7-6.5h-2.6v6.5h-2.5V75.6h5.2c3.3,0,5.8,1.2,5.8,4.6c0,2.5-1.3,4-3.4,4.6l3.9,6.8H377.9z
		 M371.6,83.2h2.4c2.4,0,3.6-1,3.6-2.9c0-2-1.3-2.7-3.6-2.7h-2.4V83.2z"/>
	<path fill="#FFFFFF" d="M398.6,75.6h4.6c3.3,0,5.6,1.1,5.6,3.9c0,1.5-0.9,3-2.8,3.5v0.1c2.3,0.4,3.7,1.6,3.7,3.8
		c0,3.2-2.5,4.7-6.1,4.7h-5V75.6z M402.9,82.4c2.5,0,3.5-0.9,3.5-2.5c0-1.6-1.2-2.3-3.4-2.3h-1.9v4.8H402.9z M403.3,89.7
		c2.5,0,4-0.9,4-2.9c0-1.8-1.4-2.7-4-2.7h-2.2v5.6H403.3z"/>
	<path fill="#FFFFFF" d="M413.1,89.6h3.9V77.7h-3.9v-2.1h10.3v2.1h-3.9v11.9h3.9v2.1h-10.3V89.6z"/>
	<path fill="#FFFFFF" d="M426.7,83.6c0-5.2,2.6-8.3,6.2-8.3s6.2,3.1,6.2,8.3c0,5.2-2.6,8.4-6.2,8.4S426.7,88.8,426.7,83.6z
		 M436.7,83.6c0-3.8-1.5-6.1-3.7-6.1c-2.2,0-3.7,2.3-3.7,6.1s1.5,6.2,3.7,6.2C435.2,89.8,436.7,87.4,436.7,83.6z"/>
	<path fill="#FFFFFF" d="M446.4,77.7h-5.2v-2.1H454v2.1h-5.2v14h-2.5V77.7z"/>
	<path fill="#FFFFFF" d="M457.6,75.6h10.1v2.1h-7.6v4.6h6.4v2.1h-6.4v5.3h7.9v2.1h-10.3V75.6z"/>
	<path fill="#FFFFFF" d="M478.5,75.3c2,0,3.5,1,4.5,2l-1.4,1.5c-0.8-0.9-1.8-1.4-3.1-1.4c-2.9,0-4.8,2.4-4.8,6.2
		c0,3.8,1.9,6.2,4.8,6.2c1.4,0,2.4-0.6,3.4-1.7l1.4,1.5c-1.3,1.5-2.9,2.3-4.9,2.3c-4.1,0-7.2-3-7.2-8.3
		C471.2,78.5,474.3,75.3,478.5,75.3z"/>
	<path fill="#FFFFFF" d="M486.1,75.6h2.5v6.6h6.1v-6.6h2.5v16.1h-2.5v-7.3h-6.1v7.3h-2.5V75.6z"/>
	<path fill="#FFFFFF" d="M500.9,75.6h2.5l4.8,9.6l1.5,3.3h0.1c-0.1-1.6-0.3-3.6-0.3-5.3v-7.6h2.3v16.1h-2.5l-4.8-9.6l-1.5-3.3h-0.1
		c0.1,1.7,0.3,3.5,0.3,5.2v7.7h-2.3V75.6z"/>
	<path fill="#FFFFFF" d="M514.8,83.6c0-5.2,2.6-8.3,6.2-8.3s6.2,3.1,6.2,8.3c0,5.2-2.6,8.4-6.2,8.4S514.8,88.8,514.8,83.6z
		 M524.7,83.6c0-3.8-1.5-6.1-3.7-6.1c-2.2,0-3.7,2.3-3.7,6.1s1.5,6.2,3.7,6.2C523.2,89.8,524.7,87.4,524.7,83.6z"/>
	<path fill="#FFFFFF" d="M531.4,75.6h2.4v14h7.7v2.1h-10.1V75.6z"/>
	<path fill="#FFFFFF" d="M544.1,83.6c0-5.2,2.6-8.3,6.2-8.3s6.2,3.1,6.2,8.3c0,5.2-2.6,8.4-6.2,8.4S544.1,88.8,544.1,83.6z
		 M554.1,83.6c0-3.8-1.5-6.1-3.7-6.1c-2.2,0-3.7,2.3-3.7,6.1s1.5,6.2,3.7,6.2C552.6,89.8,554.1,87.4,554.1,83.6z"/>
	<path fill="#FFFFFF" d="M566.1,75.3c2.1,0,3.6,1,4.5,2l-1.4,1.5c-0.8-0.8-1.7-1.4-3.1-1.4c-2.8,0-4.7,2.4-4.7,6.2
		c0,3.8,1.7,6.2,4.7,6.2c1,0,1.9-0.3,2.5-0.8v-3.8h-3v-2h5.2v6.9c-1.1,1-2.8,1.9-4.9,1.9c-4.1,0-7.1-3-7.1-8.3
		C558.9,78.4,562,75.3,566.1,75.3z"/>
	<path fill="#FFFFFF" d="M578.5,86l-5.3-10.4h2.6l2.2,4.5c0.6,1.2,1.1,2.5,1.7,3.7h0.1c0.6-1.3,1.2-2.5,1.8-3.7l2.1-4.5h2.5
		L580.9,86v5.6h-2.5V86z"/>
</g>
</svg>
